<?xml version="1.0" encoding="UTF-8" standalone="no"?>
<!DOCTYPE svg PUBLIC "-//W3C//DTD SVG 1.1//EN" "http://www.w3.org/Graphics/SVG/1.1/DTD/svg11.dtd">
<svg version="1.1" xmlns="http://www.w3.org/2000/svg" xmlns:xlink="http://www.w3.org/1999/xlink" preserveAspectRatio="xMidYMid meet" viewBox="0 0 640 640" width="640" height="640"><defs><path d="M480 200C480 90 390 0 280 0C170 0 80 90 80 200C80 210.67 80 264 80 360L0 520C109.2 520 169.87 520 182 520C192 566 232 600 280 600C328 600 368 566 378 520C390.13 520 450.8 520 560 520L480 360C480 264 480 210.67 480 200ZM224 520C235.2 520 324.8 520 336 520C328 544 306 560 280 560C254 560 232 544 224 520ZM120 360C120 264 120 210.67 120 200C120 112 192 40 280 40C368 40 440 112 440 200C440 210.67 440 264 440 360L500 480L60 480L120 360Z" id="b7vTYlagg"></path><path d="M207.43 240.05L207.43 260.73L216.62 236.61L223.51 211.34L232.7 188.36L224.66 209.04" id="b1kW0Wjtw3"></path><path d="" id="acoiOWbPz"></path></defs><g><g><g><g><filter id="shadow13614191" x="-20" y="-20" width="612" height="641" filterUnits="userSpaceOnUse" primitiveUnits="userSpaceOnUse"><feFlood></feFlood><feComposite in2="SourceAlpha" operator="in"></feComposite><feGaussianBlur stdDeviation="1"></feGaussianBlur><feOffset dx="12" dy="1" result="afterOffset"></feOffset><feFlood flood-color="#9c8787" flood-opacity="0.5"></feFlood><feComposite in2="afterOffset" operator="in"></feComposite><feMorphology operator="dilate" radius="1"></feMorphology><feComposite in2="SourceAlpha" operator="out"></feComposite></filter><path d="M480 200C480 90 390 0 280 0C170 0 80 90 80 200C80 210.67 80 264 80 360L0 520C109.2 520 169.87 520 182 520C192 566 232 600 280 600C328 600 368 566 378 520C390.13 520 450.8 520 560 520L480 360C480 264 480 210.67 480 200ZM224 520C235.2 520 324.8 520 336 520C328 544 306 560 280 560C254 560 232 544 224 520ZM120 360C120 264 120 210.67 120 200C120 112 192 40 280 40C368 40 440 112 440 200C440 210.67 440 264 440 360L500 480L60 480L120 360Z" id="cGRwnlwZA" fill="white" fill-opacity="1" filter="url(#shadow13614191)"></path></g><use xlink:href="#b7vTYlagg" opacity="1" fill="#81c98f" fill-opacity="1"></use><g><use xlink:href="#b7vTYlagg" opacity="1" fill-opacity="0" stroke="#a73535" stroke-width="1" stroke-opacity="0"></use></g></g><g><g><use xlink:href="#b1kW0Wjtw3" opacity="1" fill-opacity="0" stroke="#f9f5f5" stroke-width="1" stroke-opacity="0"></use></g></g><g><g><use xlink:href="#acoiOWbPz" opacity="1" fill-opacity="0" stroke="#f9f5f5" stroke-width="1" stroke-opacity="0"></use></g></g></g></g></svg>